<svg xmlns="http://www.w3.org/2000/svg" width="27" height="25" fill="none" viewBox="0 0 27 25"><g fill-rule="evenodd" clip-rule="evenodd"><path fill="#0B0A0A" d="M24.654 14.67c.184.244.35.458.512.676.79 1.065 1.057 2.269.872 3.564-.188 1.322-.952 2.203-2.192 2.672-.712.269-1.455.31-2.2.251-.373-.03-.583.115-.744.424a5.282 5.282 0 0 1-.972 1.32c-.572.563-1.233.963-2.032 1.104-1.558.276-2.771-.278-3.632-1.585-.313-.476-.541-1.006-.814-1.524-.395.188-.577.558-.863.82-.83.759-1.753 1.307-2.904 1.398-1.206.093-2.135-.367-2.794-1.376-.412-.63-.655-1.33-.869-2.048-.51-1.712-.518-1.709-2.206-2.214a19.777 19.777 0 0 1-1.004-.322 5.5 5.5 0 0 1-1.439-.781c-1.052-.79-1.886-2.423-1.001-4.21.372-.752.897-1.377 1.502-1.941.401-.375.813-.736 1.222-1.103.245-.221.252-.46.067-.725-.135-.193-.28-.383-.375-.595-.16-.357-.327-.72-.415-1.096A3.04 3.04 0 0 1 4 3.929c1.377-.675 2.788-.692 4.201-.087.877.374 1.621.936 2.297 1.605.214.213.337.54.726.614.08-.342.152-.682.24-1.018.27-1.036.699-1.999 1.386-2.828.83-.998 1.895-1.527 3.192-1.46 1.213.062 2.183.58 2.712 1.742.13.287.314.323.555.173a5.334 5.334 0 0 1 2.192-.786 5.274 5.274 0 0 1 1.286-.024c1.486.186 2.383 1.144 2.53 2.643.066.674.01 1.353-.224 1.975-.307.813-.077 1.43.448 2.044.355.415.675.87.943 1.346.93 1.641.598 3.091-.938 4.214-.277.202-.572.38-.89.59v-.002ZM6.12 5.116c-.081.007-.278.01-.47.044-.19.034-.38.092-.564.156-1.098.375-1.495 1.275-1.013 2.33.112.248.262.484.426.7.583.769.59 1.606-.216 2.428-.274.279-.575.532-.852.808-.36.358-.74.702-1.06 1.098-1.272 1.58-.902 2.92 1.004 3.666.326.127.67.206 1.009.306.299.089.604.163.9.261.943.313 1.636.9 2 1.845.155.401.29.812.46 1.207.201.467.393.944.658 1.375.373.606.818.74 1.506.572.93-.228 1.587-.83 2.116-1.583.873-1.238 1.328-2.652 1.622-4.125.046-.23-.047-.375-.262-.445-.26-.086-.53-.141-.778-.25-1.443-.638-2.265-2.072-2.078-3.603.072-.596.29-1.146.65-1.618.276-.361.273-.686.092-1.081C10.584 7.7 9.566 6.49 8.13 5.661c-.579-.334-1.208-.553-2.008-.545H6.12Zm6.815 3.462c.83-.205 1.583-.393 2.366-.444.946-.06 1.676.305 2.26 1.004.714.856.99 1.845.852 2.956-.079.629-.07.64.499.85 1.462.54 2.969.65 4.5.408a3.103 3.103 0 0 0 1.571-.742c.572-.5.686-1.006.344-1.674-.176-.345-.416-.661-.65-.973-.234-.312-.507-.597-.745-.908-.566-.734-.703-1.557-.463-2.445.102-.377.228-.749.33-1.126a2.115 2.115 0 0 0-.002-1.16c-.168-.573-.483-.851-1.082-.903-.754-.065-1.483.036-2.162.392-.345.181-.68.386-1.028.563-1.112.563-1.604.352-1.992-.84-.322-.984-.989-1.338-1.996-1.078-.734.189-1.22.68-1.602 1.293-.899 1.445-1.299 3.003-1 4.824v.003Zm1.701 10.165c.082 1.04.271 1.996.732 2.879.126.242.27.48.441.69.68.83 1.701.999 2.626.45.378-.224.675-.531.913-.897.127-.196.247-.4.336-.617.342-.83.944-1.204 1.84-1.13.552.044 1.096-.062 1.615-.237.646-.218 1.027-.673 1.093-1.383.061-.646-.028-1.258-.376-1.805-.209-.328-.471-.624-.716-.928-.308-.38-.665-.624-1.201-.563-.465.053-.93-.028-1.396-.119-.86-.168-1.637-.511-2.364-.983-.215-.14-.423-.208-.615.03a4.62 4.62 0 0 1-2.3 1.55c-.163.05-.272.146-.293.318-.116.933-.228 1.866-.335 2.744v.001Zm-.352-4.695c1.03.007 1.779-.433 2.277-1.258.432-.715.493-1.483.04-2.22-.448-.73-1.168-.996-1.98-1.054-.241-.018-.446.108-.632.26-.589.475-1.017 1.068-1.334 1.75-.634 1.369.57 2.588 1.627 2.522h.002Z"/><path fill="#FFD768" d="M6.12 5.115c.8-.008 1.43.21 2.01.545 1.435.829 2.452 2.04 3.139 3.546.18.395.184.72-.092 1.08a3.3 3.3 0 0 0-.65 1.619c-.187 1.531.635 2.965 2.078 3.603.248.11.52.165.778.25.214.071.308.217.262.445-.296 1.472-.75 2.885-1.622 4.125-.529.75-1.187 1.354-2.116 1.582-.688.17-1.133.035-1.506-.572-.266-.429-.457-.907-.658-1.373-.17-.396-.304-.806-.46-1.208-.364-.945-1.057-1.533-2-1.845-.296-.098-.6-.174-.9-.261-.338-.1-.683-.179-1.01-.306-1.905-.745-2.275-2.085-1.002-3.666.317-.396.699-.74 1.059-1.098.277-.277.578-.53.852-.808.806-.822.799-1.66.216-2.428a3.769 3.769 0 0 1-.426-.7c-.48-1.055-.085-1.955 1.013-2.33.185-.062.373-.12.564-.156.192-.034.389-.037.47-.044h.002Zm6.815 3.461c-.299-1.823.101-3.381 1-4.825.381-.612.87-1.102 1.602-1.292 1.008-.26 1.674.093 1.996 1.077.39 1.193.881 1.403 1.992.84.349-.176.684-.381 1.029-.562.678-.357 1.407-.46 2.161-.393.599.052.914.329 1.082.903.113.388.105.776.001 1.16-.1.378-.226.75-.329 1.127-.24.888-.103 1.71.463 2.445.238.31.51.594.745.907.234.312.474.627.65.973.342.667.228 1.174-.343 1.674a3.08 3.08 0 0 1-1.57.743c-1.533.24-3.04.13-4.502-.409-.569-.209-.578-.22-.5-.85.14-1.11-.137-2.1-.851-2.955-.585-.701-1.316-1.067-2.26-1.004-.783.05-1.536.239-2.366.444v-.003Zm1.701 10.164c.107-.877.22-1.81.335-2.743.02-.172.132-.267.293-.318a4.633 4.633 0 0 0 2.3-1.55c.192-.238.4-.17.615-.03.729.472 1.505.815 2.364.983.465.09.93.172 1.396.119.538-.063.895.181 1.201.563.246.304.509.598.716.928.347.548.437 1.159.376 1.805-.066.709-.447 1.163-1.093 1.383-.519.175-1.062.28-1.615.236-.896-.073-1.498.302-1.84 1.13-.089.216-.209.42-.336.618a2.777 2.777 0 0 1-.913.898c-.924.548-1.947.38-2.625-.45a4.054 4.054 0 0 1-.442-.691c-.46-.884-.65-1.84-.732-2.879v-.002Z"/><path fill="#ED9698" d="M14.284 14.045c-1.06.067-2.26-1.153-1.627-2.52.316-.683.745-1.277 1.334-1.752.186-.152.39-.276.632-.26.812.058 1.532.325 1.98 1.055.451.737.39 1.504-.04 2.219-.5.824-1.246 1.265-2.278 1.258h-.001Z"/></g></svg>