<svg xmlns="http://www.w3.org/2000/svg" width="1180" height="260" viewBox="0 0 1180 260"><path fill="#202020" d="M130.849 258.619H0v-241.7h28.58v238.247h102.27v3.453Zm41.644-39.708c0 18.185 4.82 29.81 14.462 34.874 4.591 2.302 10.445 3.453 17.561 3.453 14.462 0 27.318-5.525 38.566-16.574 11.478-11.049 17.676-21.293 18.594-30.73V85.976h24.104v148.128c0 6.675 1.263 11.854 3.788 15.537 2.755 3.453 5.509 5.295 8.264 5.525l3.788.691h10.674v2.762H291.29c-9.412 0-16.643-2.072-21.694-6.215-4.82-4.144-7.346-8.287-7.575-12.431l-.345-5.869v-14.848c-4.132 9.898-11.478 19.221-22.037 27.968C229.079 255.741 217.486 260 204.86 260c-12.396 0-22.611-1.151-30.646-3.453-7.805-2.532-13.429-5.985-16.872-10.358-5.969-7.136-8.953-16.344-8.953-27.623V85.976h24.104v132.935Zm364.781-93.227c0-14.042-1.836-23.94-5.509-29.695-3.673-5.754-10.675-8.632-21.005-8.632-13.773 0-26.055 5.755-36.844 17.265-10.56 11.509-15.84 21.868-15.84 31.075v122.922h-24.103V125.684c0-14.042-1.837-23.94-5.51-29.695-3.673-5.754-11.478-8.632-23.415-8.632s-23.3 5.525-34.09 16.574c-10.559 11.049-16.298 21.293-17.217 30.73v123.958h-24.103V85.976h24.103v39.017c3.673-9.898 10.445-19.105 20.317-27.622 9.871-8.517 20.889-12.776 33.056-12.776 12.167 0 21.808 1.15 28.925 3.453 7.346 2.072 12.511 5.41 15.495 10.013 2.984 4.604 4.821 8.632 5.509 12.085.689 3.453 1.033 8.287 1.033 14.502 3.673-9.898 10.331-18.991 19.972-27.277 9.642-8.517 19.972-12.776 30.991-12.776 11.018 0 19.857.92 26.514 2.762s11.593 3.913 14.806 6.215c3.444 2.302 5.969 5.64 7.576 10.014 1.836 4.373 2.869 7.941 3.099 10.703.229 2.763.344 6.676.344 11.74v108.075c0 6.675 1.263 11.854 3.788 15.537 2.755 3.453 5.509 5.295 8.264 5.525l3.788.691h10.674v2.762h-21.004c-9.412 0-16.643-2.072-21.694-6.215-4.821-4.144-7.346-8.287-7.575-12.431l-.345-5.869v-108.42ZM598.317 0h24.103v128.791c3.903-10.588 11.134-20.602 21.694-30.04 10.56-9.437 22.497-14.156 35.811-14.156 46.601 0 69.901 27.393 69.901 82.178 0 62.151-30.072 93.227-90.217 93.227-17.676 0-38.107-2.877-61.292-8.632V0Zm81.264 87.357c-14.233 0-27.088 6.215-38.566 18.646-11.478 12.2-17.676 23.249-18.595 33.147v110.146c14.004 5.294 26.285 7.942 36.845 7.942 44.305 0 66.457-30.27 66.457-90.81 0-52.714-15.38-79.07-46.141-79.07Zm121.734 131.554c0 18.185 4.821 29.81 14.463 34.874 4.591 2.302 10.445 3.453 17.561 3.453 14.462 0 27.318-5.525 38.566-16.574 11.478-11.049 17.676-21.293 18.594-30.73V85.976h24.104v148.128c0 6.675 1.263 11.854 3.788 15.537 2.755 3.453 5.509 5.295 8.264 5.525l3.788.691h10.674v2.762h-21.004c-9.412 0-16.644-2.072-21.694-6.215-4.821-4.144-7.346-8.287-7.575-12.431l-.345-5.869v-14.848c-4.132 9.898-11.478 19.221-22.037 27.968-10.56 8.517-22.153 12.776-34.779 12.776-12.396 0-22.611-1.151-30.646-3.453-7.805-2.532-13.429-5.985-16.872-10.358-5.969-7.136-8.953-16.344-8.953-27.623V85.976h24.103v132.935Zm222.915-118.088v-7.25c-10.33 4.143-19.74 12.545-28.236 25.205-8.494 12.43-12.97 24.17-13.43 35.219v104.622h-24.103V85.976h24.103v54.9c3.673-13.351 10.675-25.896 21.006-37.636 10.33-11.97 22.04-18.185 35.12-18.645h1.38c4.59 0 8.38 1.611 11.36 4.834 3.22 2.992 4.82 6.79 4.82 11.394s-1.6 8.402-4.82 11.395c-2.98 2.992-6.77 4.488-11.36 4.488s-8.38-1.496-11.36-4.488c-2.99-2.993-4.48-6.791-4.48-11.395Zm123.75 0v-7.25c-10.33 4.143-19.75 12.545-28.24 25.205-8.49 12.43-12.97 24.17-13.43 35.219v104.622h-24.1V85.976h24.1v54.9c3.67-13.351 10.68-25.896 21.01-37.636 10.33-11.97 22.03-18.185 35.12-18.645h1.38c4.59 0 8.38 1.611 11.36 4.834 3.21 2.992 4.82 6.79 4.82 11.394s-1.61 8.402-4.82 11.395c-2.98 2.992-6.77 4.488-11.36 4.488-4.6 0-8.38-1.496-11.37-4.488-2.98-2.993-4.47-6.791-4.47-11.395Z"/></svg>