<svg xmlns="http://www.w3.org/2000/svg" width="201" height="49" fill="none" viewBox="0 0 201 49"><path fill="#202020" d="M16.523 44.574H0V13.896h3.609v30.24h12.914v.438Zm5.257-5.04c0 2.308.61 3.783 1.827 4.426.58.292 1.319.438 2.218.438 1.826 0 3.449-.7 4.87-2.103 1.449-1.403 2.231-2.703 2.347-3.9V22.66h3.044v18.801c0 .847.16 1.505.478 1.972.348.439.696.672 1.044.702l.478.087h1.348v.35h-2.652c-1.189 0-2.102-.262-2.74-.788-.608-.526-.927-1.052-.956-1.578l-.044-.745v-1.884c-.522 1.256-1.45 2.44-2.783 3.55-1.333 1.08-2.797 1.621-4.391 1.621-1.565 0-2.855-.146-3.87-.438-.985-.322-1.696-.76-2.13-1.315-.754-.906-1.13-2.074-1.13-3.506V22.661h3.043v16.873Zm46.062-11.833c0-1.782-.232-3.038-.695-3.769-.464-.73-1.348-1.095-2.653-1.095-1.739 0-3.29.73-4.652 2.19-1.334 1.462-2 2.776-2 3.945v15.602h-3.044V27.7c0-1.782-.232-3.038-.696-3.769-.463-.73-1.449-1.095-2.956-1.095s-2.942.7-4.305 2.103c-1.333 1.403-2.058 2.703-2.174 3.9v15.734h-3.043V22.66h3.043v4.953c.464-1.257 1.32-2.425 2.566-3.506 1.246-1.081 2.638-1.622 4.174-1.622 1.536 0 2.754.146 3.652.438.928.263 1.58.687 1.957 1.271.377.585.608 1.096.695 1.534.087.438.13 1.052.13 1.84.465-1.256 1.305-2.41 2.523-3.461 1.217-1.081 2.522-1.622 3.913-1.622s2.507.117 3.348.35c.84.234 1.464.497 1.87.79.434.292.753.715.956 1.27.232.555.362 1.008.391 1.359.03.35.044.847.044 1.49v13.717c0 .847.16 1.505.478 1.972.348.439.696.672 1.044.702l.478.087h1.348v.35h-2.652c-1.189 0-2.102-.262-2.74-.788-.608-.526-.927-1.052-.956-1.578l-.044-.745v-13.76Zm7.708-15.952h3.044v16.347c.493-1.344 1.406-2.615 2.739-3.813s2.84-1.797 4.522-1.797c5.884 0 8.826 3.477 8.826 10.43 0 7.889-3.797 11.833-11.391 11.833-2.232 0-4.812-.365-7.74-1.096V11.75Zm10.261 11.088c-1.797 0-3.42.788-4.87 2.366-1.449 1.549-2.231 2.951-2.347 4.207v13.98c1.768.672 3.319 1.008 4.652 1.008 5.595 0 8.392-3.842 8.392-11.526 0-6.69-1.942-10.035-5.827-10.035Zm15.372 16.697c0 2.308.609 3.783 1.826 4.426.58.292 1.319.438 2.218.438 1.826 0 3.449-.7 4.869-2.103 1.45-1.403 2.232-2.703 2.348-3.9V22.66h3.044v18.801c0 .847.159 1.505.478 1.972.348.439.696.672 1.044.702l.478.087h1.348v.35h-2.652c-1.189 0-2.102-.262-2.74-.788-.608-.526-.927-1.052-.956-1.578l-.044-.745v-1.884c-.521 1.256-1.449 2.44-2.782 3.55-1.334 1.08-2.798 1.621-4.392 1.621-1.565 0-2.855-.146-3.87-.438-.985-.322-1.695-.76-2.13-1.315-.754-.906-1.13-2.074-1.13-3.506V22.661h3.043v16.873Zm28.148-14.988v-.92c-1.305.525-2.493 1.592-3.566 3.199-1.072 1.577-1.637 3.067-1.695 4.47v13.279h-3.044V22.66h3.044v6.968c.463-1.694 1.347-3.286 2.652-4.776 1.304-1.52 2.783-2.309 4.435-2.367h.174c.579 0 1.058.205 1.435.614.405.38.608.861.608 1.446 0 .584-.203 1.066-.608 1.446-.377.38-.856.57-1.435.57-.58 0-1.058-.19-1.435-.57-.377-.38-.565-.862-.565-1.446Zm15.625 0v-.92c-1.304.525-2.492 1.592-3.565 3.199-1.073 1.577-1.638 3.067-1.696 4.47v13.279h-3.043V22.66h3.043v6.968c.464-1.694 1.348-3.286 2.653-4.776 1.304-1.52 2.782-2.309 4.435-2.367h.173c.58 0 1.058.205 1.435.614.406.38.609.861.609 1.446 0 .584-.203 1.066-.609 1.446-.377.38-.855.57-1.435.57-.579 0-1.058-.19-1.434-.57-.377-.38-.566-.862-.566-1.446Z"/><path fill="#FFCBBF" d="M174.576 28.693s-6.039 6.702-4.831 12.733c1.207 6.032 6.556 6.702 8.971 6.702 3.451 0 9.312-2.549 8.455-8.712-.863-6.2-5.349-11.058-5.349-11.058l-7.246.335Z"/><path fill="#D68383" d="M171.186 33.692s2.201 1.283 6.713 1.283c4.513 0 7.263-.855 7.263-.855l-.339-1.408-13.306-.408-.33 1.39-.001-.002Z" opacity=".48"/><path fill="#8C372F" d="M178.635 48.22c-2.378 0-8.046-.678-9.306-6.968-1.225-6.12 4.658-12.734 4.909-13.013a.347.347 0 0 1 .479-.03c.141.12.155.328.031.464-.059.067-5.915 6.653-4.752 12.455 1.12 5.6 5.893 6.435 8.639 6.435 1.993 0 4.793-.877 6.555-2.835 1.339-1.487 1.864-3.339 1.563-5.504-.838-6.022-5.222-10.834-5.266-10.883a.323.323 0 0 1 .027-.465.345.345 0 0 1 .478.026c.187.201 4.566 5.005 5.433 11.234.324 2.328-.272 4.412-1.724 6.026-1.901 2.113-4.919 3.06-7.066 3.06v-.001Z"/><path fill="#FFCBBF" d="M161.906 23.73s.224 1.02-1.2 1.093c-1.425.073-4.017-3.301-3.285-4.854 1.015-2.153 2.417-2.271 3.795-.629l.69 4.39Z"/><path fill="#8C372F" d="M160.659 25.154c-.891 0-1.879-.93-2.518-1.815-.823-1.143-1.5-2.827-.929-4.125.346-.789 1.115-1.305 2.002-1.348.949-.046 1.809.447 2.299 1.315.089.16.03.36-.135.448a.344.344 0 0 1-.461-.131c-.363-.642-.987-1.005-1.67-.974a1.607 1.607 0 0 0-1.412.95c-.462 1.051.175 2.536.862 3.488.747 1.036 1.566 1.556 1.99 1.534.333-.017.57-.093.633-.203.054-.094-.004-.258-.042-.324a.325.325 0 0 1 .131-.447.344.344 0 0 1 .46.123c.03.052.294.523.047.962-.185.332-.587.515-1.194.547l-.066.001.003-.001Z"/><path fill="#8C372F" d="M160.986 22.02a.34.34 0 0 1-.324-.23c-.196-.607-.392-1.132-.812-1.414a.884.884 0 0 0-.768-.076c-.107.042-.241.122-.275.279a.34.34 0 0 1-.401.254.329.329 0 0 1-.262-.39c.073-.34.325-.616.687-.756a1.572 1.572 0 0 1 1.407.148c.644.436.89 1.2 1.072 1.758a.328.328 0 0 1-.222.413.367.367 0 0 1-.102.015Z"/><path fill="#FFCBBF" d="M196.095 23.73s-.224 1.019 1.2 1.092c1.424.074 4.017-3.302 3.286-4.855-1.015-2.152-2.417-2.27-3.795-.628l-.69 4.39h-.001Z"/><path fill="#8C372F" d="m197.342 25.154-.066-.001c-.607-.032-1.007-.216-1.194-.547-.247-.44.017-.91.047-.963a.345.345 0 0 1 .463-.122c.161.09.219.29.127.448-.036.065-.094.23-.04.323.063.108.3.184.634.203.429.024 1.244-.498 1.989-1.534.687-.952 1.324-2.437.862-3.489a1.608 1.608 0 0 0-1.412-.949c-.686-.033-1.307.332-1.67.974a.346.346 0 0 1-.461.13.326.326 0 0 1-.135-.447c.49-.869 1.352-1.36 2.299-1.315.889.043 1.656.56 2.002 1.348.571 1.299-.106 2.983-.929 4.125-.639.885-1.627 1.815-2.518 1.815h.002Z"/><path fill="#8C372F" d="M197.014 22.02a.367.367 0 0 1-.102-.014.328.328 0 0 1-.222-.413c.182-.558.428-1.322 1.072-1.758a1.572 1.572 0 0 1 1.407-.148c.364.141.614.416.687.756a.33.33 0 0 1-.262.39.34.34 0 0 1-.401-.254c-.034-.157-.168-.239-.275-.279a.88.88 0 0 0-.768.076c-.42.284-.616.808-.812 1.414a.34.34 0 0 1-.324.23Z"/><path fill="#FFCBBF" d="M197.042 13.244c.274 2.266 1.287 10.57-3.234 15.688-3.312 3.748-12.191 3.92-14.936 3.97-2.746-.05-11.666-.16-14.9-3.97-4.385-5.169-3.252-14.684-2.815-16.449.782-3.167 3.228-11.405 18.139-11.405s17.486 10.01 17.747 12.165h-.001Z"/><path fill="#D68383" d="M193.808 26.735c-3.556 3.53-12.191 3.92-14.936 3.97-2.746-.05-11.343-.44-14.9-3.97-2.244-2.228-3.08-6.124-3.19-9.524-.113 3.711.437 8.987 3.19 11.72 3.557 3.531 12.154 3.921 14.9 3.97 2.745-.049 11.38-.439 14.936-3.97 2.753-2.733 3.453-8.161 3.341-11.874-.109 3.4-1.097 7.45-3.341 9.678Z" opacity=".48"/><path fill="#CA2C2A" d="M181.866 24.305c-.814-.712-1.539-.096-3.492-.096s-2.678-.616-3.492.096c-.814.712.154 3.163 3.492 3.163 3.339 0 4.307-2.451 3.492-3.163Z"/><path fill="#fff" d="M169.248 22.549c1.94 0 3.513-1.669 3.513-3.727 0-2.06-1.573-3.728-3.513-3.728-1.941 0-3.514 1.669-3.514 3.728 0 2.058 1.573 3.727 3.514 3.727Z"/><path fill="#282E38" d="M172.761 18.858c0-2.038-1.463-3.69-3.268-3.69-.184 0-.363.02-.538.053-1.147.626-1.943 1.991-1.943 3.575 0 1.746.969 3.226 2.309 3.743.058.004.114.01.172.01 1.805 0 3.268-1.652 3.268-3.69Z"/><path fill="#282E38" d="M169.247 22.878c-2.124 0-3.852-1.82-3.852-4.056 0-2.237 1.728-4.057 3.852-4.057 2.125 0 3.853 1.82 3.853 4.056 0 2.237-1.728 4.057-3.853 4.057Zm0-7.455c-1.75 0-3.173 1.525-3.173 3.399 0 1.873 1.424 3.398 3.173 3.398 1.75 0 3.174-1.525 3.174-3.398 0-1.874-1.424-3.399-3.174-3.399Z"/><path fill="#FFECFF" d="M171.696 17.689c0 .394-.301.712-.671.712-.37 0-.671-.32-.671-.712 0-.392.301-.712.671-.712.37 0 .671.32.671.712Z"/><path fill="#282E38" d="M165.632 17.524c-.654 0-1.304-.339-1.631-.903a.324.324 0 0 1 .128-.448.345.345 0 0 1 .463.124c.265.458.896.685 1.406.508a.343.343 0 0 1 .435.198.328.328 0 0 1-.204.422 1.807 1.807 0 0 1-.595.099h-.002Zm1.181-1.256c-.621 0-1.234-.383-1.466-.949a.328.328 0 0 1 .19-.428.343.343 0 0 1 .441.185c.146.357.582.59.97.52a.337.337 0 0 1 .394.265.33.33 0 0 1-.272.383 1.517 1.517 0 0 1-.257.022v.002Z"/><path fill="#fff" d="M188.405 22.549c1.941 0 3.514-1.669 3.514-3.727 0-2.06-1.573-3.728-3.514-3.728-1.94 0-3.513 1.669-3.513 3.728 0 2.058 1.573 3.727 3.513 3.727Z"/><path fill="#282E38" d="M191.919 18.858c0-2.038-1.463-3.69-3.268-3.69-.184 0-.363.02-.538.053-1.147.626-1.943 1.991-1.943 3.575 0 1.746.968 3.226 2.308 3.743.058.004.115.01.173.01 1.805 0 3.268-1.652 3.268-3.69Z"/><path fill="#282E38" d="M188.405 22.878c-2.124 0-3.852-1.82-3.852-4.056 0-2.237 1.728-4.057 3.852-4.057 2.125 0 3.853 1.82 3.853 4.056 0 2.237-1.728 4.057-3.853 4.057Zm0-7.455c-1.75 0-3.173 1.525-3.173 3.399 0 1.873 1.424 3.398 3.173 3.398s3.174-1.525 3.174-3.398c0-1.874-1.425-3.399-3.174-3.399Z"/><path fill="#FFECFF" d="M190.853 17.689c0 .394-.301.712-.671.712-.37 0-.671-.32-.671-.712 0-.392.301-.712.671-.712.37 0 .671.32.671.712Z"/><path fill="#282E38" d="M192.215 17.524a1.8 1.8 0 0 1-.595-.1.327.327 0 0 1-.204-.421.343.343 0 0 1 .435-.198c.509.177 1.14-.05 1.407-.508a.345.345 0 0 1 .462-.124c.164.089.22.29.128.448-.327.564-.977.903-1.631.903h-.002Zm-1.181-1.256a1.5 1.5 0 0 1-.257-.022.33.33 0 0 1-.272-.383.337.337 0 0 1 .394-.264c.389.07.824-.165.97-.52a.343.343 0 0 1 .44-.186c.174.068.26.26.191.428-.232.567-.844.95-1.466.95v-.003Z"/><path fill="#FE9C9B" d="M168.527 27.436c1.136 0 2.056-.78 2.056-1.742 0-.961-.92-1.741-2.056-1.741-1.135 0-2.055.78-2.055 1.741 0 .962.92 1.742 2.055 1.742Z"/><path fill="#CD7E60" d="M171.09 11.151c.14.492-.714 1.151-1.908 1.471-1.194.32-2.274.181-2.415-.31-.141-.492.714-1.151 1.908-1.471 1.194-.32 2.274-.181 2.415.31Z"/><path fill="#8C372F" d="M167.957 13.125c-.752 0-1.37-.215-1.517-.725-.225-.794.908-1.545 2.144-1.877 1.237-.332 2.607-.253 2.832.54.226.794-.908 1.545-2.143 1.877a5.18 5.18 0 0 1-1.318.185h.002Zm1.933-2.13c-.305 0-.684.045-1.125.164-1.21.325-1.72.895-1.671 1.066.049.171.787.406 1.997.08 1.211-.325 1.721-.894 1.672-1.066-.032-.109-.342-.243-.874-.243h.001Z"/><path fill="#CD7E60" d="M187.053 11.151c-.14.492.714 1.151 1.908 1.471 1.193.32 2.274.181 2.415-.31.14-.492-.714-1.151-1.908-1.471-1.194-.32-2.274-.181-2.415.31Z"/><path fill="#8C372F" d="M190.186 13.125a5.19 5.19 0 0 1-1.317-.185c-1.237-.332-2.37-1.083-2.145-1.877.227-.793 1.596-.872 2.832-.54 1.237.332 2.371 1.083 2.145 1.877-.145.51-.764.725-1.515.725Zm-2.807-1.886c-.049.171.461.741 1.671 1.067 1.21.325 1.95.09 1.998-.081.049-.171-.461-.741-1.672-1.066-1.21-.326-1.948-.09-1.997.08Z"/><path fill="#FE9C9B" d="M188.619 27.436c1.135 0 2.056-.78 2.056-1.742 0-.961-.921-1.741-2.056-1.741s-2.055.78-2.055 1.741c0 .962.92 1.742 2.055 1.742Z"/><path fill="#F26E6F" d="M176.016 26.904s.488-1.107 2.442-1.107c1.953 0 2.279 1.265 2.279 1.265s-1.307.406-2.363.406c-1.055 0-2.358-.564-2.358-.564Z"/><path fill="#8C372F" d="M178.374 27.797c-2.307 0-3.559-1.089-3.96-2.108-.257-.65-.165-1.275.241-1.63.63-.55 1.245-.455 2.023-.334.441.069.99.153 1.696.153.707 0 1.256-.084 1.697-.152.778-.122 1.393-.216 2.022.333.407.355.499.98.242 1.63-.403 1.02-1.655 2.108-3.961 2.108Zm-2.575-3.506a.94.94 0 0 0-.69.259c-.187.162-.212.526-.062.905.307.776 1.363 1.684 3.327 1.684 1.965 0 3.02-.908 3.328-1.684.15-.378.124-.741-.062-.905-.369-.323-.664-.297-1.462-.174-.465.072-1.043.162-1.804.162-.76 0-1.338-.09-1.803-.162a5.415 5.415 0 0 0-.772-.085Z"/><path fill="#CD7E60" d="M177.512 9.09a.343.343 0 0 1-.217-.078c-.977-.79-1.612-1.998-1.697-3.23a4.619 4.619 0 0 1 1.231-3.425.346.346 0 0 1 .48-.02.321.321 0 0 1 .021.465 3.958 3.958 0 0 0-1.055 2.937 3.99 3.99 0 0 0 1.456 2.77.321.321 0 0 1 .043.463.343.343 0 0 1-.261.119l-.001-.002Zm4.622-.574a.322.322 0 0 1-.076-.009c-1.347-.3-2.538-1.186-3.185-2.371a4.615 4.615 0 0 1-.232-3.89.343.343 0 0 1 .44-.187.326.326 0 0 1 .193.427 3.965 3.965 0 0 0 .199 3.342c.555 1.019 1.578 1.78 2.735 2.037a.33.33 0 0 1 .256.395.339.339 0 0 1-.33.256Zm.712-3.388c-.016 0-.033 0-.049-.003-1.277-.18-2.298-1.346-2.276-2.599a.34.34 0 0 1 .345-.324.334.334 0 0 1 .334.335c-.016.917.76 1.804 1.695 1.935a.33.33 0 0 1 .287.373.337.337 0 0 1-.335.282l-.001.001Z"/><path fill="#8C372F" d="M178.878 33.23h-.119c-2.908-.052-11.755-.21-15.049-4.09-4.491-5.292-3.303-15.035-2.882-16.734.506-2.048 1.403-4.7 3.863-7.048C167.896 2.3 172.809.75 179.296.75s11.678 1.812 14.856 5.388c2.478 2.79 3.083 5.872 3.228 7.068l-.338.037.338-.03c.861 7.108-.255 12.468-3.315 15.932-3.423 3.875-12.278 4.034-15.188 4.085l.001.001Zm.418-31.823c-15.053.001-17.127 8.394-17.809 11.153-.406 1.646-1.565 11.079 2.747 16.162 3.094 3.647 11.706 3.799 14.537 3.849l.107.002c7.592-.135 12.532-1.433 14.673-3.856 2.932-3.319 3.995-8.509 3.156-15.426v-.008c-.138-1.135-.713-4.062-3.069-6.714-3.043-3.424-7.869-5.16-14.342-5.16v-.002Z"/><path fill="#fff" d="M186.916 38.184c-.269.208-3.168 2.354-8.281 2.354s-8.618-2.322-9.001-2.584c-.167 1.073-.185 2.164.029 3.235 1.208 6.031 6.556 6.702 8.972 6.702 3.45 0 9.312-2.55 8.454-8.713a16.048 16.048 0 0 0-.173-.994Z"/><path fill="#341C3A" d="M187.089 39.178c-.04-.29.069-.254.012-.538.23 5.546-5.4 7.54-8.687 7.54-2.375 0-7.582-.651-8.905-6.406.012.473.059.947.153 1.415 1.207 6.031 6.556 6.702 8.971 6.702 3.451 0 9.312-2.55 8.455-8.713h.001Z" opacity=".23"/><path fill="#3A5782" d="M178.635 48.22c-2.378 0-8.047-.678-9.306-6.968-.206-1.034-.218-2.16-.031-3.347a.328.328 0 0 1 .202-.253.35.35 0 0 1 .329.033c.379.258 3.842 2.524 8.807 2.524 4.964 0 7.768-2.048 8.07-2.282a.349.349 0 0 1 .329-.051c.11.04.192.132.216.246.075.363.141.696.185 1.015.324 2.328-.282 4.412-1.734 6.025-1.901 2.113-4.919 3.06-7.066 3.06l-.001-.001Zm-8.734-9.704c-.1.923-.068 1.799.094 2.61 1.121 5.6 5.894 6.436 8.64 6.436 1.993 0 4.793-.877 6.555-2.835 1.338-1.487 1.863-3.339 1.562-5.505a11.503 11.503 0 0 0-.074-.47c-1.049.671-3.806 2.116-8.045 2.116s-7.542-1.644-8.733-2.352h.001Z"/><path fill="#FFCBBF" d="M187.482 47.048c1.412.21 2.183.69 3.412 1.072 1.229.383 2.575-.063 3.413-2.132.837-2.07.565-4.297-.638-4.52-1.202-.224-2.278 2.419-2.278 2.419s-1.737-2.846-4.234-3.163c-2.497-.317-4.126 4.639-3.583 5.903.125.292 2.39.195 3.908.422v-.001Z"/><path fill="#D68383" d="M194.563 44.337s-.922-1.28-1.843.51c-.922 1.791-3.16 1.6-4.478 1.28-1.317-.32-4.163-2.602-3.422-4.028 0 0-2.333 3.963-1.148 4.54 1.185.575 3.583.575 6.151 1.214 2.568.64 3.16.319 3.884-.767.724-1.087.856-2.75.856-2.75Z" opacity=".48"/><path fill="#8C372F" d="M191.835 48.75c-.245 0-.501-.042-.765-.124-1.3-.405-3.205-.908-4.179-1.042a61.023 61.023 0 0 0-1.044-.134c-1.825-.224-2.428-.327-2.587-.698-.448-1.046.275-3.609 1.434-5.079.746-.949 1.614-1.39 2.506-1.278 1.983.25 3.481 1.942 4.13 2.812.425-.84 1.316-2.266 2.402-2.065.424.08.778.348 1.021.777.546.961.493 2.644-.132 4.187-.711 1.758-1.646 2.643-2.787 2.643h.001Zm-7.968-2.304c.257.129 1.298.256 2.066.35.347.043.706.087 1.054.135 1.01.14 2.963.654 4.289 1.066.407.127 1.645.511 2.714-2.133.547-1.349.616-2.84.169-3.628-.145-.256-.331-.406-.554-.448-.702-.13-1.582 1.437-1.899 2.216a.34.34 0 0 1-.289.207.342.342 0 0 1-.318-.16c-.017-.027-1.685-2.713-3.986-3.004-.807-.103-1.467.5-1.879 1.025-1.112 1.411-1.612 3.636-1.367 4.373v.001Z"/><path fill="#FFCBBF" d="M169.284 47.048c-1.412.21-2.183.69-3.412 1.072-1.228.382-2.575-.063-3.413-2.132-.837-2.07-.565-4.297.638-4.52 1.202-.224 2.278 2.419 2.278 2.419s1.736-2.846 4.234-3.163c2.497-.317 4.125 4.639 3.583 5.903-.125.292-2.391.195-3.908.422v-.001Z"/><path fill="#D68383" d="M162.014 44.337s.922-1.28 1.843.51c.922 1.791 3.16 1.6 4.477 1.28 1.318-.32 3.819-2.238 3.423-4.028 0 0 2.333 3.963 1.148 4.54-1.185.575-3.583.575-6.151 1.214-2.568.64-3.16.319-3.884-.767-.724-1.087-.856-2.75-.856-2.75Z" opacity=".48"/><path fill="#8C372F" d="M164.931 48.75c-1.141 0-2.075-.886-2.787-2.644-.624-1.543-.677-3.226-.132-4.187.243-.43.597-.697 1.021-.777 1.085-.203 1.978 1.226 2.402 2.065.649-.87 2.147-2.561 4.131-2.812.891-.112 1.758.33 2.506 1.278 1.159 1.471 1.881 4.035 1.433 5.079-.159.37-.762.474-2.587.698-.343.043-.699.086-1.044.134-.972.134-2.879.637-4.178 1.042a2.59 2.59 0 0 1-.766.123h.001Zm-1.686-6.968a.475.475 0 0 0-.083.007c-.223.042-.409.192-.554.448-.447.788-.377 2.28.169 3.628 1.07 2.644 2.308 2.26 2.713 2.133 1.327-.412 3.28-.927 4.29-1.066.347-.048.706-.093 1.054-.135.768-.094 1.808-.222 2.065-.35.247-.737-.254-2.961-1.366-4.373-.412-.523-1.073-1.126-1.879-1.024-2.306.292-3.97 2.976-3.986 3.003a.346.346 0 0 1-.319.16.338.338 0 0 1-.288-.206c-.306-.749-1.132-2.224-1.816-2.224v-.001Z"/><path fill="#FFCBBF" d="m170.347 37.768-1.055-5.74s-4.223 2.05-3.59 4.921c.149.674.621 1.274 1.291 1.498.672.224 1.425.138 2.074-.138.356-.152.896-.597 1.28-.54Z"/><path fill="#D68383" d="M165.536 35.686s1.242 2.082 2.934.11c0 0 .908 1.932 1.64 1.925 0 0-3.219 1.308-4.066.047-.848-1.26-.508-2.082-.508-2.082Z" opacity=".48"/><path fill="#8C372F" d="M167.686 38.805c-.395 0-.785-.06-1.133-.22-.616-.28-1.014-.807-1.182-1.569-.682-3.093 3.811-5.152 4.004-5.238a.347.347 0 0 1 .305.01.33.33 0 0 1 .173.244l.832 5.69a.328.328 0 0 1-.178.337c-.076.04-1.48.746-2.82.746h-.001Zm1.562-6.22c-1.043.562-3.674 2.208-3.214 4.294.123.557.386.92.804 1.11.916.417 2.417-.086 3.138-.41l-.73-4.993h.002Z"/><path fill="#FFCBBF" d="M170.769 31.618c-2.612 0-2.744 5.74-.422 6.15 2.322.41 2.956-6.15.422-6.15Z"/><path fill="#8C372F" d="M170.549 38.116c-.087 0-.175-.008-.263-.023-1.456-.257-2.058-2.12-1.899-3.827.168-1.809 1.103-2.978 2.383-2.978.668 0 1.206.358 1.555 1.036.699 1.357.475 3.867-.452 5.067-.367.473-.829.725-1.324.725Zm.22-6.169c-1.097 0-1.605 1.28-1.707 2.378-.13 1.394.339 2.94 1.345 3.12.336.058.647-.092.923-.45.785-1.016.981-3.224.388-4.376-.229-.447-.549-.672-.948-.672h-.001Z"/><path fill="#FFCBBF" d="m185.594 37.768 1.056-5.74s4.222 2.05 3.589 4.921c-.149.674-.621 1.274-1.291 1.498-.671.224-1.424.138-2.074-.138-.355-.152-.896-.597-1.28-.54Z"/><path fill="#D68383" d="M190.036 35.686s-1.242 2.082-2.934.11c0 0-.908 1.932-1.64 1.925 0 0 3.219 1.308 4.066.047.847-1.26.508-2.082.508-2.082Z" opacity=".48"/><path fill="#8C372F" d="M188.255 38.805c-1.34 0-2.744-.706-2.82-.746a.326.326 0 0 1-.178-.333l.767-5.69a.33.33 0 0 1 .171-.247.349.349 0 0 1 .306-.01c.194.086 4.751 2.144 4.069 5.238-.168.761-.566 1.29-1.181 1.57-.349.158-.738.22-1.134.22v-.002Zm-2.293-1.23c.565.252 2.145.867 3.141.413.418-.19.681-.553.804-1.109.461-2.087-2.216-3.733-3.273-4.293l-.672 4.99Z"/><path fill="#FFCBBF" d="M185.171 31.618c2.612 0 2.744 5.74.422 6.15-2.322.41-2.956-6.15-.422-6.15Z"/><path fill="#8C372F" d="M185.392 38.116c-.495 0-.958-.251-1.324-.725-.927-1.2-1.151-3.71-.452-5.067.349-.678.886-1.036 1.555-1.036 1.28 0 2.214 1.17 2.383 2.978.159 1.707-.443 3.57-1.899 3.827a1.486 1.486 0 0 1-.263.023Zm-.22-6.169c-.4 0-.719.226-.948.672-.593 1.152-.397 3.36.388 4.377.276.357.586.507.923.448 1.006-.177 1.475-1.725 1.345-3.12-.102-1.096-.609-2.377-1.706-2.377h-.002Z"/></svg>